<?xml version="1.0" encoding="utf-8"?>
<!-- Svg Vector Icons : http://www.onlinewebfonts.com/icon -->
<!DOCTYPE svg PUBLIC "-//W3C//DTD SVG 1.1//EN" "http://www.w3.org/Graphics/SVG/1.1/DTD/svg11.dtd">
<svg version="1.1" xmlns="http://www.w3.org/2000/svg" xmlns:xlink="http://www.w3.org/1999/xlink" x="0px" y="0px" viewBox="0 0 1000 1000" enable-background="new 0 0 1000 1000" xml:space="preserve">
<metadata> Svg Vector Icons : http://www.onlinewebfonts.com/icon </metadata>
<g><path d="M940.7,945c0-0.2-0.1-0.4-0.1-0.6l-0.3-3c0-3.5-0.4-6.9-1.2-10.1c-20.2-158.6-123.3-291-264.2-352C756.5,523.1,810,428.7,810,321.8C810,149.6,671.2,10,500,10c-171.2,0-310,139.6-310,311.8c0,107,53.6,201.3,135.2,257.5C185.8,639.7,83.5,770.1,61.8,926.5c-1.7,4.7-2.6,9.7-2.6,14.9l0.4,4.1c0,24.6,19.8,44.5,44.2,44.5c24.4,0,44.2-19.9,44.2-44.5L148,945h0.9C169.5,775.1,309,642.1,481.2,633c6.3,0.4,12.5,0.6,18.9,0.6c6.4,0,12.7-0.3,18.9-0.6c172.2,9.1,311.7,142.1,332.4,312h1l0.1,0.5c0,24.6,19.8,44.5,44.2,44.5c24.4,0,44.2-19.9,44.2-44.5L940.7,945L940.7,945z M500,544.6c-122.3,0-221.4-99.7-221.4-222.7c0-123,99.1-222.7,221.4-222.7c122.3,0,221.4,99.7,221.4,222.7C721.4,444.9,622.3,544.6,500,544.6z"/></g>
</svg>